<svg width="70" height="70" viewBox="0 0 70 70" fill="none" xmlns="http://www.w3.org/2000/svg">
<rect width="70" height="70" rx="9" fill="#FFFFF6"/>
<path d="M64.1154 62.4387H7V7H64.1154V62.4387ZM8.55677 60.9277H62.5586V8.51107H8.55677V60.9277Z" fill="#003837"/>
<path d="M53.8019 44.9683C53.8019 47.2097 53.3738 49.3555 52.5876 51.3274H46.5811C47.9354 49.091 48.7242 46.4164 48.7242 43.5429C48.7242 35.6828 42.8292 29.3136 35.5591 29.3136C28.289 29.3136 22.394 35.6828 22.394 43.5429C22.394 46.4164 23.1828 49.091 24.5371 51.3274H18.528C17.7418 49.3555 17.3137 47.2097 17.3137 44.9683C17.3137 35.1866 25.4816 27.2585 35.5591 27.2585C45.6366 27.2585 53.8019 35.1866 53.8019 44.9683Z" fill="#003837"/>
<path d="M49.5051 18.1089C46.1762 22.3726 40.9013 25.1278 34.9622 25.1278C30.375 25.1278 26.1795 23.4833 22.9751 20.7684L24.4073 19.3177C26.7165 21.4609 29.7782 22.763 33.1408 22.763C37.0976 22.763 40.6419 20.9573 43.0263 18.1089H49.5051Z" fill="#003837"/>
<path d="M23.7482 18.6906L22.303 20.1589L21.6077 18.1089L23.7482 18.6906Z" fill="#003837"/>
</svg>
