<svg xmlns="http://www.w3.org/2000/svg" width="70" height="69" fill="none" viewBox="0 0 70 69"><circle cx="24.5" cy="24.5" r="19.5" fill="#003837" fill-opacity=".5"/><path stroke="#000" stroke-linecap="round" stroke-linejoin="round" stroke-width="1.667" d="M53.069 63.473a2.04 2.04 0 0 1-2.887 0l-3.239-3.238a2.04 2.04 0 0 1 0-2.887l11.405-11.404a2.04 2.04 0 0 1 2.887 0l3.238 3.238a2.04 2.04 0 0 1 0 2.886z"/><path stroke="#000" stroke-linecap="round" stroke-linejoin="round" stroke-width="1.667" d="m57.75 46.542-2.807-14.035a2.04 2.04 0 0 0-1.523-1.584L27.605 24.14a2.042 2.042 0 0 0-2.464 2.465l6.782 25.815a2.04 2.04 0 0 0 1.584 1.523l14.035 2.807M25.696 24.696 40.57 39.57"/><path stroke="#000" stroke-linecap="round" stroke-linejoin="round" stroke-width="1.667" d="M43.458 46.542a4.083 4.083 0 1 0 0-8.167 4.083 4.083 0 0 0 0 8.167"/><path fill="#000" d="M48.287 25.239a.686.686 0 0 0 .713-.68 24.5 24.5 0 1 0-25.961 24.397.686.686 0 0 0 .723-.669.72.72 0 0 0-.68-.733 23.096 23.096 0 1 1 24.515-23.039c0 .388.303.712.69.723"/></svg>