<svg xmlns="http://www.w3.org/2000/svg" width="192" height="45" fill="none" viewBox="0 0 192 45"><path fill="#fff" d="M69.273 18.237c-1.602-5.698-5.516-8.406-9.145-8.406-4.697 0-8.968 4.572-7.153 12.978 1.46 6.718 6.085 9.355 10.64 9.355 4.554 0 9.358-2.813 10.39-6.893l.427.035c-1.495 5.733-5.871 8.863-12.24 8.863-7.33 0-13.095-4.572-13.095-12.662S54.86 8.846 62.19 8.846c3.203 0 9.786 1.723 9.786 5.979 0 1.829-1.246 2.778-2.278 3.236zM77.564 9.197h3.771v11.466h12.099V9.197h3.807v24.62h-3.807v-12.38H81.335v12.38h-3.771zM102.08 9.197h3.772v24.62h-3.772zM110.549 13.629V9.197h16.831l-13.415 23.917h2.811c2.598 0 5.765-.985 7.9-2.497l1.672-1.267v4.467h-17.044l13.45-23.81h-2.74c-2.384 0-5.302.843-7.294 2.145zM145.101 29.349v4.466h-14.234V9.197h3.736v23.847h1.104c2.49 0 5.515-.95 7.579-2.322l1.815-1.372zM152.147 33.815h-6.192l10.96-24.62h3.487l9.999 24.62h-4.484l-3.024-7.984h-12.241c-.462 2.462-.071 5.206 1.139 7.316zm10.461-8.757-5.266-13.999-.249-.527-5.765 13.19c-.213.421-.356.878-.498 1.336zM173.069 9.197h8.789c6.441 0 8.006 2.884 8.006 6.331 0 3.236-2.312 5.663-5.551 5.663v.176c5.551 0 7.153 2.919 7.153 5.944 0 3.2-1.957 6.506-8.647 6.506h-9.75zm9.252 11.888c2.242 0 3.807-2.884 3.807-5.698 0-2.813-1.494-5.416-3.807-5.416h-5.48l-.036 11.114zm.035 11.959c3.274 0 5.089-2.955 5.089-5.663 0-2.884-1.957-5.522-4.768-5.522h-5.836v11.185zM43.517 43.013H0V0h43.517zM1.187 41.84H42.33V1.172H1.186z"/><path fill="#fff" d="M35.659 29.458c0 1.74-.326 3.404-.925 4.934h-4.577a11.8 11.8 0 0 0 1.633-6.04c0-6.098-4.491-11.04-10.03-11.04-5.54 0-10.03 4.942-10.03 11.04 0 2.23.6 4.305 1.632 6.04H8.784a13.5 13.5 0 0 1-.926-4.934c0-7.59 6.224-13.74 13.902-13.74s13.899 6.15 13.899 13.74M32.385 8.62a13.93 13.93 0 0 1-11.08 5.445 13.94 13.94 0 0 1-9.133-3.383l1.091-1.125c1.76 1.663 4.092 2.673 6.654 2.673 3.015 0 5.715-1.4 7.532-3.61zM12.761 9.07l-1.101 1.14-.53-1.59z"/></svg>