<svg xmlns="http://www.w3.org/2000/svg" width="252" height="58" fill="none" viewBox="0 0 252 58"><path fill="#003837" d="M90.921 23.505C88.82 16.16 83.682 12.67 78.918 12.67c-6.164 0-11.769 5.893-9.387 16.728 1.915 8.658 7.986 12.058 13.964 12.058s12.283-3.626 13.638-8.885l.56.045c-1.961 7.39-7.706 11.424-16.066 11.424-9.62 0-17.187-5.893-17.187-16.32S72.006 11.4 81.627 11.4c4.204 0 12.844 2.222 12.844 7.707 0 2.358-1.635 3.582-2.99 4.17zM101.803 11.854h4.95v14.778h15.879V11.854h4.998v31.733h-4.998V27.63h-15.879v15.957h-4.95zM133.981 11.854h4.951v31.733h-4.951zM145.097 17.566v-5.712h22.09L149.58 42.68h3.69c3.409 0 7.566-1.27 10.368-3.219l2.195-1.632v5.758h-22.371l17.654-30.69h-3.596c-3.13 0-6.959 1.088-9.575 2.765zM190.446 37.827v5.757h-18.681v-31.73h4.903v30.735h1.448c3.27 0 7.239-1.224 9.948-2.992l2.382-1.768zM199.693 43.584h-8.127l14.385-31.732h4.577l13.123 31.732h-5.884l-3.97-10.29h-16.066c-.607 3.173-.093 6.709 1.495 9.429zm13.73-11.288-6.912-18.042-.327-.68-7.565 17c-.281.544-.467 1.133-.654 1.722zM227.154 11.854h11.536c8.453 0 10.508 3.717 10.508 8.16 0 4.17-3.036 7.298-7.285 7.298v.227c7.285 0 9.387 3.762 9.387 7.661 0 4.125-2.569 8.386-11.349 8.386h-12.797zm12.143 15.322c2.942 0 4.997-3.717 4.997-7.343s-1.961-6.982-4.997-6.982h-7.192l-.047 14.325zm.047 15.413c4.297 0 6.678-3.808 6.678-7.298 0-3.717-2.568-7.117-6.258-7.117h-7.659v14.415zM57.115 55.439H0V0h57.115zM1.557 53.928h54.002V1.51H1.557z"/><path fill="#003837" d="M46.802 37.968c0 2.241-.428 4.387-1.215 6.36h-6.006c1.354-2.237 2.143-4.912 2.143-7.785 0-7.86-5.895-14.23-13.165-14.23s-13.165 6.37-13.165 14.23c0 2.873.789 5.548 2.143 7.784h-6.01a17.1 17.1 0 0 1-1.213-6.359c0-9.782 8.167-17.71 18.245-17.71 10.077 0 18.243 7.928 18.243 17.71M42.505 11.109c-3.33 4.264-8.604 7.019-14.543 7.019-4.587 0-8.783-1.645-11.987-4.36l1.432-1.45c2.31 2.143 5.37 3.445 8.733 3.445 3.957 0 7.501-1.806 9.886-4.654zM16.748 11.69l-1.445 1.469-.696-2.05z"/></svg>