<svg xmlns="http://www.w3.org/2000/svg" width="22" height="22" fill="none" viewBox="0 0 22 22"><g clip-path="url(#a)"><path fill="#003837" stroke="#003837" stroke-miterlimit="10" stroke-width=".454" d="M15.607 16.751c-.279 2.559-2.941 2.154-4.61 4.356-.797-.933-1.752-1.592-2.861-2.051-1.34-.554-1.996-1.852-1.79-3.392-1.61.156-2.92-.503-3.492-1.967-.41-1.05-1.106-1.934-1.963-2.707.909-.806 1.572-1.72 2.015-2.805.563-1.38 1.88-2.05 3.414-1.856-.19-1.549.513-2.892 1.92-3.454 1.057-.422 1.95-1.091 2.741-1.982.743.821 1.606 1.52 2.643 1.917 1.493.571 2.229 1.92 2.029 3.552 1.636-.236 2.924.519 3.492 1.945.419 1.051 1.07 1.974 1.965 2.665-.956.81-1.598 1.815-2.088 2.929-.43.978-1.242 1.608-2.305 1.717l-.998.103-.112 1.03Zm-4.598 3.99c.742-.793 1.571-1.415 2.539-1.79 1.456-.566 2.096-1.902 1.852-3.5 1.87.046 2.813-.286 3.522-1.884a7.95 7.95 0 0 1 1.833-2.588c-.852-.75-1.42-1.65-1.872-2.665-.404-.908-1.131-1.648-2.169-1.717l-1.27-.084c.092-1.647-.297-2.757-1.752-3.395-1.014-.444-1.916-1.01-2.687-1.87-.77.772-1.682 1.459-2.755 1.883-2.171.86-1.602 3.399-1.787 3.404l-.373.011c-1.314-.093-2.465.502-2.97 1.731-.42 1.023-1.036 1.906-1.874 2.72.857.793 1.453 1.728 1.908 2.777.376.868 1.096 1.512 2.045 1.598l1.33.121c-.061 1.577.274 2.72 1.699 3.342 1.054.461 1.962 1.051 2.781 1.905Z"/></g><defs><clipPath id="a"><path fill="#fff" d="M0 0h22v22H0z"/></clipPath></defs></svg>