<svg xmlns="http://www.w3.org/2000/svg" fill="none" overflow="visible" preserveAspectRatio="none" style="display:block" viewBox="0 0 26.583 26.583"><path fill="var(--fill-0, #003837)" stroke="var(--stroke-0, #003837)" stroke-miterlimit="10" stroke-width=".454" d="M18.859 20.241c-.338 3.092-3.555 2.603-5.572 5.263-.962-1.127-2.117-1.924-3.457-2.478-1.619-.67-2.41-2.238-2.163-4.099-1.945.19-3.527-.607-4.219-2.376-.496-1.27-1.336-2.337-2.372-3.272 1.099-.973 1.9-2.078 2.435-3.39.68-1.665 2.273-2.476 4.126-2.242-.23-1.871.62-3.494 2.32-4.173 1.277-.51 2.356-1.319 3.312-2.395.898.992 1.94 1.837 3.193 2.316 1.805.69 2.693 2.32 2.452 4.292 1.977-.285 3.533.627 4.22 2.35.505 1.27 1.292 2.386 2.374 3.22-1.156.98-1.931 2.194-2.524 3.54-.52 1.182-1.5 1.943-2.785 2.075l-1.205.124-.136 1.245Zm-5.556 4.82c.896-.958 1.898-1.71 3.067-2.163 1.76-.683 2.533-2.297 2.238-4.229 2.259.056 3.399-.345 4.257-2.276a9.6 9.6 0 0 1 2.214-3.127c-1.03-.905-1.715-1.994-2.262-3.22-.489-1.097-1.367-1.992-2.62-2.075l-1.534-.1c.11-1.991-.36-3.332-2.119-4.103-1.225-.537-2.314-1.221-3.246-2.26-.932.933-2.033 1.762-3.329 2.276-2.624 1.039-1.937 4.106-2.16 4.113l-.45.013C5.772 7.797 4.38 8.516 3.77 10c-.507 1.237-1.252 2.303-2.264 3.286 1.035.96 1.755 2.088 2.305 3.356.454 1.05 1.324 1.827 2.47 1.931l1.609.147c-.074 1.906.33 3.285 2.052 4.038 1.274.557 2.371 1.27 3.361 2.302Z"/></svg>